<svg xmlns="http://www.w3.org/2000/svg" viewBox="-14 -14 450 250" role="img" aria-label="line chart">
<text x="44" y="-4" font-family="Barlow Semi Condensed,sans-serif" font-weight="600" font-size="13" fill="var(--ink, #19211c)">Value iteration: geometric decay at rate about gamma</text>
<line x1="44" y1="18" x2="44" y2="188" stroke="var(--rule-strong, #b7c4b9)" stroke-width="1"/>
<line x1="44" y1="188" x2="344" y2="188" stroke="var(--rule-strong, #b7c4b9)" stroke-width="1"/>
<line x1="44" y1="188.0" x2="344" y2="188.0" stroke="var(--rule, #cdd8ce)" stroke-width="0.6"/>
<text x="38" y="191.0" text-anchor="end" font-family="ui-monospace,monospace" font-size="8.5" fill="var(--ink-faint, #77817a)">0</text>
<line x1="44" y1="103.0" x2="344" y2="103.0" stroke="var(--rule, #cdd8ce)" stroke-width="0.6"/>
<text x="38" y="106.0" text-anchor="end" font-family="ui-monospace,monospace" font-size="8.5" fill="var(--ink-faint, #77817a)">5</text>
<line x1="44" y1="18.0" x2="344" y2="18.0" stroke="var(--rule, #cdd8ce)" stroke-width="0.6"/>
<text x="38" y="21.0" text-anchor="end" font-family="ui-monospace,monospace" font-size="8.5" fill="var(--ink-faint, #77817a)">9</text>
<text x="44.0" y="200.0" text-anchor="middle" font-family="ui-monospace,monospace" font-size="8.5" fill="var(--ink-faint, #77817a)">1.0</text>
<text x="194.0" y="200.0" text-anchor="middle" font-family="ui-monospace,monospace" font-size="8.5" fill="var(--ink-faint, #77817a)">54.5</text>
<text x="344.0" y="200.0" text-anchor="middle" font-family="ui-monospace,monospace" font-size="8.5" fill="var(--ink-faint, #77817a)">108.0</text>
<path d="M44.0 188.0 L46.8 187.1 L49.6 186.3 L52.4 185.4 L55.2 184.6 L58.0 183.7 L60.8 182.8 L63.6 182.0 L66.4 175.5 L69.2 174.6 L72.0 173.7 L74.8 172.9 L77.6 172.0 L80.4 171.2 L83.3 153.4 L86.1 152.5 L88.9 150.8 L91.7 145.2 L94.5 144.3 L97.3 143.0 L100.1 142.1 L102.9 141.2 L105.7 140.4 L108.5 136.9 L111.3 136.0 L114.1 135.1 L116.9 134.0 L119.7 133.1 L122.5 131.8 L125.3 130.9 L128.1 129.1 L130.9 127.3 L133.7 125.7 L136.5 121.2 L139.3 120.3 L142.1 119.5 L144.9 118.6 L147.7 116.2 L150.5 115.3 L153.3 114.5 L156.1 113.1 L159.0 112.2 L161.8 111.0 L164.6 110.2 L167.4 108.6 L170.2 107.5 L173.0 106.0 L175.8 102.0 L178.6 100.5 L181.4 98.6 L184.2 97.8 L187.0 96.2 L189.8 95.3 L192.6 94.0 L195.4 92.5 L198.2 91.7 L201.0 90.4 L203.8 89.5 L206.6 88.3 L209.4 87.4 L212.2 85.9 L215.0 83.7 L217.8 82.2 L220.6 77.9 L223.4 77.0 L226.2 76.2 L229.0 75.3 L231.9 73.4 L234.7 72.1 L237.5 71.2 L240.3 69.8 L243.1 68.9 L245.9 67.9 L248.7 67.0 L251.5 65.6 L254.3 64.5 L257.1 62.9 L259.9 59.9 L262.7 58.3 L265.5 55.8 L268.3 55.0 L271.1 53.1 L273.9 52.3 L276.7 51.2 L279.5 49.6 L282.3 48.7 L285.1 47.6 L287.9 46.7 L290.7 45.5 L293.5 44.6 L296.3 43.1 L299.1 41.3 L301.9 39.7 L304.7 36.4 L307.6 34.5 L310.4 33.4 L313.2 32.5 L316.0 30.7 L318.8 29.4 L321.6 28.5 L324.4 27.1 L327.2 26.2 L330.0 25.2 L332.8 24.4 L335.6 22.9 L338.4 22.0 L341.2 20.4 L344.0 18.0" fill="none" stroke="var(--p0, #2f6bb0)" stroke-width="2" stroke-linejoin="round"/>
<circle cx="44.0" cy="188.0" r="2.4" fill="var(--p0, #2f6bb0)"/>
<circle cx="46.8" cy="187.1" r="2.4" fill="var(--p0, #2f6bb0)"/>
<circle cx="49.6" cy="186.3" r="2.4" fill="var(--p0, #2f6bb0)"/>
<circle cx="52.4" cy="185.4" r="2.4" fill="var(--p0, #2f6bb0)"/>
<circle cx="55.2" cy="184.6" r="2.4" fill="var(--p0, #2f6bb0)"/>
<circle cx="58.0" cy="183.7" r="2.4" fill="var(--p0, #2f6bb0)"/>
<circle cx="60.8" cy="182.8" r="2.4" fill="var(--p0, #2f6bb0)"/>
<circle cx="63.6" cy="182.0" r="2.4" fill="var(--p0, #2f6bb0)"/>
<circle cx="66.4" cy="175.5" r="2.4" fill="var(--p0, #2f6bb0)"/>
<circle cx="69.2" cy="174.6" r="2.4" fill="var(--p0, #2f6bb0)"/>
<circle cx="72.0" cy="173.7" r="2.4" fill="var(--p0, #2f6bb0)"/>
<circle cx="74.8" cy="172.9" r="2.4" fill="var(--p0, #2f6bb0)"/>
<circle cx="77.6" cy="172.0" r="2.4" fill="var(--p0, #2f6bb0)"/>
<circle cx="80.4" cy="171.2" r="2.4" fill="var(--p0, #2f6bb0)"/>
<circle cx="83.3" cy="153.4" r="2.4" fill="var(--p0, #2f6bb0)"/>
<circle cx="86.1" cy="152.5" r="2.4" fill="var(--p0, #2f6bb0)"/>
<circle cx="88.9" cy="150.8" r="2.4" fill="var(--p0, #2f6bb0)"/>
<circle cx="91.7" cy="145.2" r="2.4" fill="var(--p0, #2f6bb0)"/>
<circle cx="94.5" cy="144.3" r="2.4" fill="var(--p0, #2f6bb0)"/>
<circle cx="97.3" cy="143.0" r="2.4" fill="var(--p0, #2f6bb0)"/>
<circle cx="100.1" cy="142.1" r="2.4" fill="var(--p0, #2f6bb0)"/>
<circle cx="102.9" cy="141.2" r="2.4" fill="var(--p0, #2f6bb0)"/>
<circle cx="105.7" cy="140.4" r="2.4" fill="var(--p0, #2f6bb0)"/>
<circle cx="108.5" cy="136.9" r="2.4" fill="var(--p0, #2f6bb0)"/>
<circle cx="111.3" cy="136.0" r="2.4" fill="var(--p0, #2f6bb0)"/>
<circle cx="114.1" cy="135.1" r="2.4" fill="var(--p0, #2f6bb0)"/>
<circle cx="116.9" cy="134.0" r="2.4" fill="var(--p0, #2f6bb0)"/>
<circle cx="119.7" cy="133.1" r="2.4" fill="var(--p0, #2f6bb0)"/>
<circle cx="122.5" cy="131.8" r="2.4" fill="var(--p0, #2f6bb0)"/>
<circle cx="125.3" cy="130.9" r="2.4" fill="var(--p0, #2f6bb0)"/>
<circle cx="128.1" cy="129.1" r="2.4" fill="var(--p0, #2f6bb0)"/>
<circle cx="130.9" cy="127.3" r="2.4" fill="var(--p0, #2f6bb0)"/>
<circle cx="133.7" cy="125.7" r="2.4" fill="var(--p0, #2f6bb0)"/>
<circle cx="136.5" cy="121.2" r="2.4" fill="var(--p0, #2f6bb0)"/>
<circle cx="139.3" cy="120.3" r="2.4" fill="var(--p0, #2f6bb0)"/>
<circle cx="142.1" cy="119.5" r="2.4" fill="var(--p0, #2f6bb0)"/>
<circle cx="144.9" cy="118.6" r="2.4" fill="var(--p0, #2f6bb0)"/>
<circle cx="147.7" cy="116.2" r="2.4" fill="var(--p0, #2f6bb0)"/>
<circle cx="150.5" cy="115.3" r="2.4" fill="var(--p0, #2f6bb0)"/>
<circle cx="153.3" cy="114.5" r="2.4" fill="var(--p0, #2f6bb0)"/>
<circle cx="156.1" cy="113.1" r="2.4" fill="var(--p0, #2f6bb0)"/>
<circle cx="159.0" cy="112.2" r="2.4" fill="var(--p0, #2f6bb0)"/>
<circle cx="161.8" cy="111.0" r="2.4" fill="var(--p0, #2f6bb0)"/>
<circle cx="164.6" cy="110.2" r="2.4" fill="var(--p0, #2f6bb0)"/>
<circle cx="167.4" cy="108.6" r="2.4" fill="var(--p0, #2f6bb0)"/>
<circle cx="170.2" cy="107.5" r="2.4" fill="var(--p0, #2f6bb0)"/>
<circle cx="173.0" cy="106.0" r="2.4" fill="var(--p0, #2f6bb0)"/>
<circle cx="175.8" cy="102.0" r="2.4" fill="var(--p0, #2f6bb0)"/>
<circle cx="178.6" cy="100.5" r="2.4" fill="var(--p0, #2f6bb0)"/>
<circle cx="181.4" cy="98.6" r="2.4" fill="var(--p0, #2f6bb0)"/>
<circle cx="184.2" cy="97.8" r="2.4" fill="var(--p0, #2f6bb0)"/>
<circle cx="187.0" cy="96.2" r="2.4" fill="var(--p0, #2f6bb0)"/>
<circle cx="189.8" cy="95.3" r="2.4" fill="var(--p0, #2f6bb0)"/>
<circle cx="192.6" cy="94.0" r="2.4" fill="var(--p0, #2f6bb0)"/>
<circle cx="195.4" cy="92.5" r="2.4" fill="var(--p0, #2f6bb0)"/>
<circle cx="198.2" cy="91.7" r="2.4" fill="var(--p0, #2f6bb0)"/>
<circle cx="201.0" cy="90.4" r="2.4" fill="var(--p0, #2f6bb0)"/>
<circle cx="203.8" cy="89.5" r="2.4" fill="var(--p0, #2f6bb0)"/>
<circle cx="206.6" cy="88.3" r="2.4" fill="var(--p0, #2f6bb0)"/>
<circle cx="209.4" cy="87.4" r="2.4" fill="var(--p0, #2f6bb0)"/>
<circle cx="212.2" cy="85.9" r="2.4" fill="var(--p0, #2f6bb0)"/>
<circle cx="215.0" cy="83.7" r="2.4" fill="var(--p0, #2f6bb0)"/>
<circle cx="217.8" cy="82.2" r="2.4" fill="var(--p0, #2f6bb0)"/>
<circle cx="220.6" cy="77.9" r="2.4" fill="var(--p0, #2f6bb0)"/>
<circle cx="223.4" cy="77.0" r="2.4" fill="var(--p0, #2f6bb0)"/>
<circle cx="226.2" cy="76.2" r="2.4" fill="var(--p0, #2f6bb0)"/>
<circle cx="229.0" cy="75.3" r="2.4" fill="var(--p0, #2f6bb0)"/>
<circle cx="231.9" cy="73.4" r="2.4" fill="var(--p0, #2f6bb0)"/>
<circle cx="234.7" cy="72.1" r="2.4" fill="var(--p0, #2f6bb0)"/>
<circle cx="237.5" cy="71.2" r="2.4" fill="var(--p0, #2f6bb0)"/>
<circle cx="240.3" cy="69.8" r="2.4" fill="var(--p0, #2f6bb0)"/>
<circle cx="243.1" cy="68.9" r="2.4" fill="var(--p0, #2f6bb0)"/>
<circle cx="245.9" cy="67.9" r="2.4" fill="var(--p0, #2f6bb0)"/>
<circle cx="248.7" cy="67.0" r="2.4" fill="var(--p0, #2f6bb0)"/>
<circle cx="251.5" cy="65.6" r="2.4" fill="var(--p0, #2f6bb0)"/>
<circle cx="254.3" cy="64.5" r="2.4" fill="var(--p0, #2f6bb0)"/>
<circle cx="257.1" cy="62.9" r="2.4" fill="var(--p0, #2f6bb0)"/>
<circle cx="259.9" cy="59.9" r="2.4" fill="var(--p0, #2f6bb0)"/>
<circle cx="262.7" cy="58.3" r="2.4" fill="var(--p0, #2f6bb0)"/>
<circle cx="265.5" cy="55.8" r="2.4" fill="var(--p0, #2f6bb0)"/>
<circle cx="268.3" cy="55.0" r="2.4" fill="var(--p0, #2f6bb0)"/>
<circle cx="271.1" cy="53.1" r="2.4" fill="var(--p0, #2f6bb0)"/>
<circle cx="273.9" cy="52.3" r="2.4" fill="var(--p0, #2f6bb0)"/>
<circle cx="276.7" cy="51.2" r="2.4" fill="var(--p0, #2f6bb0)"/>
<circle cx="279.5" cy="49.6" r="2.4" fill="var(--p0, #2f6bb0)"/>
<circle cx="282.3" cy="48.7" r="2.4" fill="var(--p0, #2f6bb0)"/>
<circle cx="285.1" cy="47.6" r="2.4" fill="var(--p0, #2f6bb0)"/>
<circle cx="287.9" cy="46.7" r="2.4" fill="var(--p0, #2f6bb0)"/>
<circle cx="290.7" cy="45.5" r="2.4" fill="var(--p0, #2f6bb0)"/>
<circle cx="293.5" cy="44.6" r="2.4" fill="var(--p0, #2f6bb0)"/>
<circle cx="296.3" cy="43.1" r="2.4" fill="var(--p0, #2f6bb0)"/>
<circle cx="299.1" cy="41.3" r="2.4" fill="var(--p0, #2f6bb0)"/>
<circle cx="301.9" cy="39.7" r="2.4" fill="var(--p0, #2f6bb0)"/>
<circle cx="304.7" cy="36.4" r="2.4" fill="var(--p0, #2f6bb0)"/>
<circle cx="307.6" cy="34.5" r="2.4" fill="var(--p0, #2f6bb0)"/>
<circle cx="310.4" cy="33.4" r="2.4" fill="var(--p0, #2f6bb0)"/>
<circle cx="313.2" cy="32.5" r="2.4" fill="var(--p0, #2f6bb0)"/>
<circle cx="316.0" cy="30.7" r="2.4" fill="var(--p0, #2f6bb0)"/>
<circle cx="318.8" cy="29.4" r="2.4" fill="var(--p0, #2f6bb0)"/>
<circle cx="321.6" cy="28.5" r="2.4" fill="var(--p0, #2f6bb0)"/>
<circle cx="324.4" cy="27.1" r="2.4" fill="var(--p0, #2f6bb0)"/>
<circle cx="327.2" cy="26.2" r="2.4" fill="var(--p0, #2f6bb0)"/>
<circle cx="330.0" cy="25.2" r="2.4" fill="var(--p0, #2f6bb0)"/>
<circle cx="332.8" cy="24.4" r="2.4" fill="var(--p0, #2f6bb0)"/>
<circle cx="335.6" cy="22.9" r="2.4" fill="var(--p0, #2f6bb0)"/>
<circle cx="338.4" cy="22.0" r="2.4" fill="var(--p0, #2f6bb0)"/>
<circle cx="341.2" cy="20.4" r="2.4" fill="var(--p0, #2f6bb0)"/>
<circle cx="344.0" cy="18.0" r="2.4" fill="var(--p0, #2f6bb0)"/>
<text x="348.0" y="21.0" font-family="ui-monospace,monospace" font-size="9" fill="var(--p0, #2f6bb0)">Bellman residual</text>
<text x="194" y="214" text-anchor="middle" font-family="ui-monospace,monospace" font-size="9" fill="var(--ink-faint, #77817a)">value-iteration sweep</text>
<text x="12" y="103" text-anchor="middle" font-family="ui-monospace,monospace" font-size="9" fill="var(--ink-faint, #77817a)" transform="rotate(-90 12 103)">digits of accuracy</text>
</svg>